# xmcd
#
# Track frame offsets:
#	150
#	17932
#	28970
#	39970
#	50642
#	60610
#	71440
#	81527
#	94927
#	108632
#	120375
#	131167
#	143895
#	154782
#	167335
#	176062
#	186012
#
# Disc length: 2637 seconds
#
# Revision: 5
# Processed by: cddbd v1.5PL3 Copyright (c) Steve Scherf et al.
# Submitted via: dBpowerAMP V4.0
#
DISCID=f00a4b11
DTITLE=長谷部徹 - 白い影 オリジナル・サウンドトラック
DYEAR=1900
DGENRE=Soundtrack
TTITLE0=白い影〜オーケストラ〜
TTITLE1=ソルティア〜Ritz Voice〜
TTITLE2=天使たちの日常
TTITLE3=予感
TTITLE4=陰影
TTITLE5=ソリティア〜オーケストラ〜
TTITLE6=白い影〜トリオ〜
TTITLE7=生命(いのち)〜オーケストラ〜
TTITLE8=緊迫
TTITLE9=真夜中のナイチンゲール〜オーケストラ〜
TTITLE10=謎
TTITLE11=運命
TTITLE12=白い影〜ピアノ〜
TTITLE13=緊迫
TTITLE14=天使たちの日常
TTITLE15=ソリティア〜Ritz Voice〜closer version
TTITLE16=生命(いのち)〜ピアノ〜
EXTD=
EXTT0=
EXTT1=
EXTT2=
EXTT3=
EXTT4=
EXTT5=
EXTT6=
EXTT7=
EXTT8=
EXTT9=
EXTT10=
EXTT11=
EXTT12=
EXTT13=
EXTT14=
EXTT15=
EXTT16=
PLAYORDER=
